<svg class="stock_svg" xmlns="http://www.w3.org/2000/svg" width="138" height="89" viewBox="0 0 138 89" fill="none">
    <path fill-rule="evenodd" clip-rule="evenodd"
        d="M63.8586 62.0766C62.4381 65.3464 62.2502 68.9956 63.7967 72.9345C68.5812 85.119 78.8342 89.3017 90.5112 88.9429C107.562 88.4183 127.674 78.0662 137.367 69.5564C137.827 69.1539 137.871 68.4553 137.469 67.9985C137.066 67.5389 136.367 67.4925 135.908 67.895C126.5 76.1552 106.99 86.2235 90.4419 86.7338C79.72 87.0629 70.2483 83.3171 65.8553 72.1252C64.5455 68.7952 64.7145 65.7162 65.9084 62.9485C67.7291 63.701 69.5471 64.392 71.3594 65.0192C76.3624 66.7491 90.0044 68.782 99.7144 66.6953C106.679 65.1965 111.618 61.5859 110.818 54.7346C110.373 50.9266 107.747 48.3785 103.811 47.0289C98.402 45.1702 90.4106 45.6241 82.9229 47.9455C76.6884 49.8772 70.8129 53.0929 67.049 57.245C66.2237 58.1593 65.4945 59.1154 64.8839 60.1139C39.8307 49.1993 15.3228 26.9464 3.66945 2.88201C3.4019 2.3347 2.74258 2.10265 2.19249 2.37046C1.64215 2.63549 1.41307 3.29742 1.67785 3.84497C13.5232 28.301 38.3923 50.9274 63.8586 62.0766ZM66.9537 60.9896C68.6664 61.6929 70.3768 62.3404 72.082 62.9295C76.8768 64.5857 89.9454 66.533 99.2488 64.5331C104.958 63.3066 109.278 60.6056 108.623 54.9904C108.277 52.0416 106.14 50.1666 103.094 49.1181C99.7424 47.9681 95.3285 47.8097 90.6957 48.4578C83.6621 49.4418 76.1268 52.294 70.9935 56.541C69.3666 57.8856 67.985 59.3736 66.9537 60.9896Z"
        fill="url(#paint0_linear_1033_2429)"></path>
    <path fill-rule="evenodd" clip-rule="evenodd"
        d="M36.6395 24.4265C23.9323 20.8991 11.0204 11.0481 2.40999 0.969349C2.01407 0.505794 1.3158 0.451688 0.85224 0.847615C0.388684 1.24354 0.331874 1.94154 0.727801 2.40509C9.60608 12.7998 22.9478 22.9187 36.0476 26.5561C36.6338 26.7194 37.2436 26.3747 37.4072 25.7857C37.5704 25.1994 37.2258 24.5897 36.6395 24.4265Z"
        fill="url(#paint1_linear_1033_2429)"></path>
    <path fill-rule="evenodd" clip-rule="evenodd"
        d="M0.48088 2.52333C4.93494 12.5586 4.2071 27.1846 0.385724 37.5125C0.173365 38.0853 0.46469 38.7233 1.0378 38.9329C1.61063 39.1453 2.24579 38.8537 2.45814 38.2809C6.46123 27.4612 7.16713 12.1405 2.50091 1.62664C2.25472 1.06894 1.59894 0.817182 1.04124 1.06337C0.483256 1.31233 0.231922 1.96535 0.48088 2.52333Z"
        fill="url(#paint2_linear_1033_2429)"></path>
    <defs>
        <linearGradient id="paint0_linear_1033_2429" x1="1.29168" y1="48.8165" x2="120.467" y2="38.1226"
            gradientUnits="userSpaceOnUse">
            <stop stop-color="#F85FA0"></stop>
            <stop offset="0.380208" stop-color="#FFF94F"></stop>
            <stop offset="1" stop-color="white" stop-opacity="0"></stop>
        </linearGradient>
        <linearGradient id="paint1_linear_1033_2429" x1="1.29168" y1="48.8165" x2="120.467" y2="38.1226"
            gradientUnits="userSpaceOnUse">
            <stop stop-color="#F85FA0"></stop>
            <stop offset="0.380208" stop-color="#FFF94F"></stop>
            <stop offset="1" stop-color="white" stop-opacity="0"></stop>
        </linearGradient>
        <linearGradient id="paint2_linear_1033_2429" x1="1.29168" y1="48.8165" x2="120.467" y2="38.1226"
            gradientUnits="userSpaceOnUse">
            <stop stop-color="#F85FA0"></stop>
            <stop offset="0.380208" stop-color="#FFF94F"></stop>
            <stop offset="1" stop-color="white" stop-opacity="0"></stop>
        </linearGradient>
    </defs>
</svg>