<?xml version="1.0" standalone="no"?>
<!DOCTYPE svg PUBLIC "-//W3C//DTD SVG 20010904//EN"
 "http://www.w3.org/TR/2001/REC-SVG-20010904/DTD/svg10.dtd">
<svg version="1.0" xmlns="http://www.w3.org/2000/svg"
 width="170.000000pt" height="211.000000pt" viewBox="0 0 170.000000 211.000000"
 preserveAspectRatio="xMidYMid meet">

<g transform="translate(0.000000,211.000000) scale(0.100000,-0.100000)"
fill="#000000" stroke="none">
<path d="M52 2048 c-31 -15 -34 -37 -25 -157 l8 -105 30 -8 c16 -4 196 -7 399
-7 246 0 372 -3 379 -10 8 -8 -109 -131 -389 -413 -239 -241 -407 -418 -417
-440 -12 -25 -17 -62 -17 -122 0 -47 2 -86 5 -86 2 0 141 136 308 303 166 166
476 472 687 679 l385 378 -665 -1 c-460 0 -672 -4 -688 -11z"/>
<path d="M1445 1925 c-67 -45 -1399 -1386 -1418 -1427 -24 -50 -23 -190 1
-238 21 -43 75 -80 116 -80 27 0 79 48 440 407 225 225 554 552 731 729 178
177 331 336 341 355 22 42 23 133 1 174 -28 55 -81 97 -129 102 -35 4 -50 0
-83 -22z"/>
<path d="M925 761 c-396 -396 -721 -725 -723 -730 -5 -14 1396 -15 1417 -2 22
14 22 234 0 256 -14 14 -70 17 -450 22 -319 4 -435 8 -437 17 -1 6 197 211
441 455 317 316 451 456 468 489 18 37 23 64 24 126 0 44 -4 81 -10 83 -5 1
-334 -321 -730 -716z"/>
</g>
</svg>
