<svg enable-background="new 0 0 515.555 515.555" height="16" viewBox="0 0 515.555 515.555" width="16"
    xmlns="http://www.w3.org/2000/svg" fill="#fff">
    <path
        d="m496.679 212.208c25.167 25.167 25.167 65.971 0 91.138s-65.971 25.167-91.138 0-25.167-65.971 0-91.138 65.971-25.167 91.138 0">
    </path>
    <path
        d="m303.347 212.208c25.167 25.167 25.167 65.971 0 91.138s-65.971 25.167-91.138 0-25.167-65.971 0-91.138 65.971-25.167 91.138 0">
    </path>
    <path
        d="m110.014 212.208c25.167 25.167 25.167 65.971 0 91.138s-65.971 25.167-91.138 0-25.167-65.971 0-91.138 65.971-25.167 91.138 0">
    </path>
</svg>