<svg class="cta_icon" xmlns="http://www.w3.org/2000/svg" width="20" height="22" viewBox="0 0 20 22" fill="currentColor">
    <path
        d="M13.9517 21.9393L19.5556 20.555L17.1294 4.24065C17.1226 4.19269 17.0995 4.14849 17.0639 4.11536C17.0284 4.08224 16.9825 4.06218 16.9339 4.0585L15.2778 4.04029L13.9517 2.75919V21.9454V21.9393ZM13.3406 2.56489L12.6806 2.77133C12.5983 2.50529 12.4919 2.24721 12.3628 2.00024C11.8922 1.10772 11.2017 0.634135 10.3767 0.634135H10.3706L10.1994 0.646278L10.12 0.561276C9.94577 0.372393 9.7315 0.224305 9.49266 0.127706C9.25381 0.0311075 8.99636 -0.0115919 8.73889 0.00269124C7.66944 0.0330491 6.6 0.804139 5.73222 2.17024C5.12111 3.13562 4.65667 4.34387 4.52833 5.27889L2.41389 5.92855C1.79056 6.12284 1.77222 6.14712 1.68667 6.72392L0 19.6807L13.5056 22V2.54061C13.4444 2.54061 13.3833 2.55882 13.3406 2.56489ZM10.2239 3.53027L7.94444 4.22851C8.14705 3.41045 8.54062 2.65127 9.09333 2.01238C9.28889 1.80595 9.55167 1.5813 9.86944 1.44773C10.1689 2.06703 10.2361 2.93526 10.2239 3.53027ZM8.75722 0.713065C9.01389 0.713065 9.22778 0.761638 9.405 0.883069C9.11778 1.02879 8.83667 1.24736 8.57389 1.52666C7.84795 2.36592 7.36063 3.38247 7.16222 4.47137L5.29222 5.0421C5.65889 3.32991 7.10722 0.761638 8.76333 0.713065H8.75722ZM6.67333 10.4701C6.74667 11.6115 9.76556 11.8665 9.93667 14.538C10.0711 16.6388 8.81222 18.0778 7.00333 18.1931C4.83389 18.3328 3.63611 17.0577 3.63611 17.0577L4.09444 15.1148C4.09444 15.1148 5.29833 16.0134 6.26389 15.9527C6.3795 15.9497 6.49331 15.9235 6.59843 15.8756C6.70354 15.8276 6.79779 15.7591 6.87547 15.6739C6.95316 15.5888 7.01266 15.4889 7.05039 15.3803C7.08813 15.2717 7.1033 15.1566 7.095 15.042C7.00333 13.5544 4.54056 13.6455 4.38167 11.1926C4.25333 9.13434 5.61611 7.05179 8.61667 6.86357C9.77778 6.79071 10.3644 7.08215 10.3644 7.08215L9.68 9.63221C9.68 9.63221 8.91611 9.28613 8.00556 9.34684C6.67333 9.43184 6.66111 10.2636 6.67333 10.4701ZM10.9389 3.30563C10.9407 2.64408 10.8291 1.98706 10.6089 1.36272C11.4278 1.52058 11.8311 2.43739 11.9961 2.98383L10.9389 3.30563Z"
        fill="currentColor"></path>
</svg>