<svg xmlns="http://www.w3.org/2000/svg" width="16" height="16" viewBox="0 0 16 16" fill="none">
    <path
        d="M7.66871 0.730009C7.79787 0.445389 8.20213 0.445389 8.33129 0.730009L10.3399 5.15592C10.3914 5.26954 10.4976 5.34881 10.6212 5.36594L15.2746 6.01092C15.5724 6.0522 15.6945 6.41639 15.4817 6.62878L12.0542 10.0499C11.9701 10.1338 11.9323 10.2535 11.9529 10.3705L12.8099 15.2368C12.8633 15.5403 12.5389 15.7687 12.2713 15.6159L8.18032 13.2813C8.06857 13.2176 7.93143 13.2176 7.81968 13.2813L3.72875 15.6159C3.46112 15.7687 3.13668 15.5403 3.19013 15.2368L4.04712 10.3705C4.06773 10.2535 4.02992 10.1338 3.94584 10.0499L0.518298 6.62878C0.305503 6.41639 0.427555 6.0522 0.725363 6.01092L5.37879 5.36594C5.50238 5.34881 5.60857 5.26954 5.66013 5.15592L7.66871 0.730009Z"
        fill="#FFC634"></path>
</svg>